<svg id="visual" viewBox="0 0 900 600" width="900" height="600" xmlns="http://www.w3.org/2000/svg" xmlns:xlink="http://www.w3.org/1999/xlink" version="1.1"><rect x="0" y="0" width="900" height="600" fill="#001220"></rect><defs><linearGradient id="grad1_0" x1="33.3%" y1="0%" x2="100%" y2="100%"><stop offset="20%" stop-color="#001220" stop-opacity="1"></stop><stop offset="80%" stop-color="#001220" stop-opacity="1"></stop></linearGradient></defs><defs><linearGradient id="grad2_0" x1="0%" y1="0%" x2="66.7%" y2="100%"><stop offset="20%" stop-color="#001220" stop-opacity="1"></stop><stop offset="80%" stop-color="#001220" stop-opacity="1"></stop></linearGradient></defs><g transform="translate(900, 0)"><path d="M0 398C-49.4 415.5 -98.8 433.1 -133.7 411.5C-168.6 389.9 -188.9 329.1 -209.8 288.8C-230.7 248.5 -252.2 228.6 -282.3 205.1C-312.5 181.7 -351.3 154.7 -369 119.9C-386.7 85.1 -383.4 42.6 -380 0L0 0Z" fill="#FBAE3C"></path></g><g transform="translate(0, 600)"><path d="M0 -432.7C37.6 -402.9 75.2 -373.1 115.9 -356.6C156.6 -340.2 200.4 -337.1 227.5 -313.1C254.5 -289.1 264.8 -244.3 291.2 -211.6C317.7 -178.9 360.4 -158.4 385.2 -125.2C410 -91.9 417 -46 424 0L0 0Z" fill="#FBAE3C"></path></g></svg>