<svg id="visual" viewBox="0 0 1920 1080" width="1920" height="1080" xmlns="http://www.w3.org/2000/svg" xmlns:xlink="http://www.w3.org/1999/xlink" version="1.1">
	<rect x="0" y="0" width="1920" height="1080" fill="#001220">
	</rect>
	<defs>
		<linearGradient id="grad1_0" x1="43.8%" y1="0%" x2="100%" y2="100%">
			<stop offset="14.444444444444446%" stop-color="#001220" stop-opacity="1">
			</stop>
			<stop offset="85.55555555555554%" stop-color="#001220" stop-opacity="1">
			</stop>
		</linearGradient>
	</defs>
	<defs>
		<linearGradient id="grad2_0" x1="0%" y1="0%" x2="56.3%" y2="100%">
			<stop offset="14.444444444444446%" stop-color="#001220" stop-opacity="1">
			</stop>
			<stop offset="85.55555555555554%" stop-color="#001220" stop-opacity="1">
			</stop>
		</linearGradient>
	</defs>
	<g transform="translate(1920, 0)">
		<path d="M0 864C-88.8 853.5 -177.6 843 -263.9 812.2C-350.2 781.4 -434.1 730.5 -476.7 656.1C-519.2 581.8 -520.4 484.1 -574.4 417.3C-628.4 350.6 -735.1 314.7 -770.4 250.3C-805.6 185.9 -769.3 93 -733 0L0 0Z" fill="#FBAE3C">
		</path>
	</g>
	<g transform="translate(0, 1080)">
		<path d="M0 -789C76.6 -746.9 153.1 -704.9 216.3 -665.7C279.5 -626.6 329.4 -590.4 416.7 -573.6C504.1 -556.8 629 -559.5 699 -507.8C769 -456.2 784 -350.2 789.4 -256.5C794.7 -162.8 790.4 -81.4 786 0L0 0Z" fill="#FBAE3C">
		</path>
	</g>
</svg>
