<svg id="visual" viewBox="0 0 1920 1080" width="1920" height="1080" xmlns="http://www.w3.org/2000/svg" xmlns:xlink="http://www.w3.org/1999/xlink" version="1.1">
	<rect x="0" y="0" width="1920" height="1080" fill="#001220">
	</rect>
	<defs>
		<linearGradient id="grad1_0" x1="43.8%" y1="0%" x2="100%" y2="100%">
			<stop offset="14.444444444444446%" stop-color="#001220" stop-opacity="1">
			</stop>
			<stop offset="85.55555555555554%" stop-color="#001220" stop-opacity="1">
			</stop>
		</linearGradient>
	</defs>
	<defs>
		<linearGradient id="grad2_0" x1="0%" y1="0%" x2="56.3%" y2="100%">
			<stop offset="14.444444444444446%" stop-color="#001220" stop-opacity="1">
			</stop>
			<stop offset="85.55555555555554%" stop-color="#001220" stop-opacity="1">
			</stop>
		</linearGradient>
	</defs>
	<g transform="translate(1920, 0)">
		<path d="M0 864C-71.6 789.2 -143.3 714.5 -221.3 681C-299.2 647.4 -383.5 655.2 -456.1 627.8C-528.7 600.4 -589.6 537.9 -647.2 470.2C-704.8 402.5 -759.1 329.5 -770.4 250.3C-781.6 171.1 -749.8 85.5 -718 0L0 0Z" fill="#FBAE3C">
		</path>
	</g>
	<g transform="translate(0, 1080)">
		<path d="M0 -842C96.4 -852.3 192.9 -862.6 267 -821.7C341.1 -780.8 392.9 -688.8 451.4 -621.3C509.9 -553.9 575 -511 620.5 -450.8C666 -390.7 691.8 -313.2 723.8 -235.2C755.7 -157.1 793.9 -78.6 832 0L0 0Z" fill="#FBAE3C">
		</path>
	</g>
</svg>
