<svg id="visual" viewBox="0 0 1920 1080" width="1920" height="1080" xmlns="http://www.w3.org/2000/svg" xmlns:xlink="http://www.w3.org/1999/xlink" version="1.1">
	<rect x="0" y="0" width="1920" height="1080" fill="#001220">
	</rect>
	<defs>
		<linearGradient id="grad1_0" x1="43.8%" y1="0%" x2="100%" y2="100%">
			<stop offset="14.444444444444446%" stop-color="#001220" stop-opacity="1">
			</stop>
			<stop offset="85.55555555555554%" stop-color="#001220" stop-opacity="1">
			</stop>
		</linearGradient>
	</defs>
	<defs>
		<linearGradient id="grad2_0" x1="0%" y1="0%" x2="56.3%" y2="100%">
			<stop offset="14.444444444444446%" stop-color="#001220" stop-opacity="1">
			</stop>
			<stop offset="85.55555555555554%" stop-color="#001220" stop-opacity="1">
			</stop>
		</linearGradient>
	</defs>
	<g transform="translate(1920, 0)">
		<path d="M0 855C-71.2 792.2 -142.5 729.5 -231.1 711.4C-319.8 693.3 -426 719.9 -496.1 682.8C-566.2 645.7 -600.3 544.9 -637.5 463.2C-674.7 381.4 -715 318.8 -753.2 244.7C-791.5 170.7 -827.8 85.4 -864 0L0 0Z" fill="#FBAE3C">
		</path>
	</g>
	<g transform="translate(0, 1080)">
		<path d="M0 -696C78.5 -711.1 157 -726.3 229.3 -705.7C301.6 -685.1 367.7 -628.7 415.6 -572C463.4 -515.2 493.1 -458.1 567.9 -412.6C642.8 -367.1 762.9 -333.2 819.8 -266.4C876.7 -199.5 870.3 -99.8 864 0L0 0Z" fill="#FBAE3C">
		</path>
	</g>
</svg>
