<svg id="visual" viewBox="0 0 960 540" width="960" height="540" xmlns="http://www.w3.org/2000/svg" xmlns:xlink="http://www.w3.org/1999/xlink" version="1.1"><rect x="0" y="0" width="960" height="540" fill="#001220"></rect><defs><linearGradient id="grad1_0" x1="43.8%" y1="0%" x2="100%" y2="100%"><stop offset="14.444444444444446%" stop-color="#001220" stop-opacity="1"></stop><stop offset="85.55555555555554%" stop-color="#001220" stop-opacity="1"></stop></linearGradient></defs><defs><linearGradient id="grad2_0" x1="0%" y1="0%" x2="56.3%" y2="100%"><stop offset="14.444444444444446%" stop-color="#001220" stop-opacity="1"></stop><stop offset="85.55555555555554%" stop-color="#001220" stop-opacity="1"></stop></linearGradient></defs><g transform="translate(960, 0)"><path d="M0 349C-44.4 373.6 -88.9 398.3 -128.2 394.7C-167.6 391.1 -202 359.3 -242.8 334.1C-283.5 308.9 -330.8 290.3 -349.5 253.9C-368.2 217.5 -358.5 163.3 -363.3 118C-368.1 72.8 -387.6 36.4 -407 0L0 0Z" fill="#FBAE3C"></path></g><g transform="translate(0, 540)"><path d="M0 -432C37.7 -398.6 75.3 -365.1 112.8 -347.1C150.3 -329.2 187.5 -326.7 226.9 -312.3C266.3 -297.9 307.7 -271.5 322 -233.9C336.3 -196.3 323.3 -147.5 328.1 -106.6C332.9 -65.7 355.5 -32.9 378 0L0 0Z" fill="#FBAE3C"></path></g></svg>