<svg xmlns="http://www.w3.org/2000/svg" viewBox="0 0 2501.43 1875.81"><defs><style>.cls-1{fill:#fbae3c;}</style></defs><g id="Réteg_2" data-name="Réteg 2"><g id="visual"><path class="cls-1" d="M2178.51,1134.38c-151.23-91.32-166.59-105.78-211.3-110.35-75-7.68-85.91,27.47-197.22,30.52-74.8,2-128.79,3.52-178.44-28.17-83.19-53.12-51.55-133.86-155-225.4-47.8-42.31-71.94-40.45-84.52-75.13-25.9-71.41,60.15-124.29,39.91-190.17-21.19-69-126.67-47.38-180.78-126.78-47.85-70.2-36.26-191.06,21.13-260.61,63.62-77.1,142.46-41.38,420.26-89.22,224.15-38.6,250.14-75.18,354.52-51.65,116.71,26.3,202.69,98.74,258.26,145.56,36.46,30.72,100.26,85.43,155,178.44,15.51,26.37,54.73,94.25,72.78,183.13,34.88,171.79-50,222-70.44,476.61-11.78,146.74,9.09,221.19-32.86,241.82C2369.06,1243.19,2344.44,1234.56,2178.51,1134.38Z"/><path class="cls-1" d="M279.12,671.07c118,.65,134.27-32,195.65-20.35C579.29,670.56,641.68,786,664.16,827.59c67.14,124.21,25.35,186.69,86.09,236.35,83.64,68.38,201.13-18.77,256.7,45.39,35.86,41.42-1.21,91.43,1.56,270.78,1.83,118.22,18.15,110.16,11,158.09C994,1708,783.44,1847.56,590.6,1870c-59.52,6.93-163.91,19.1-233.22-43.83-60-54.47-83.06-155.52-90.78-189.39-18.16-79.57-5.85-115.07-36-136.17-40.69-28.47-96.2,13-147.13-21.92C62,1464,51.28,1442.51,45.9,1428.64,16.37,1369.29-15.49,1280.1,8.34,1186c23.29-92,76.18-95.3,111.13-192.52,56.09-156-31.35-283.08,29.74-325.57C173.5,651,188.15,670.57,279.12,671.07Z"/></g></g></svg>