<svg xmlns="http://www.w3.org/2000/svg" viewBox="0 0 2423.35 1890.57"><defs><style>.cls-1{fill:#fbae3c;}</style></defs><g id="Réteg_2" data-name="Réteg 2"><g id="visual"><path class="cls-1" d="M2047.24,1186.13c-71.2-62.8-142.5-125.5-231.1-143.6-140.23-28.65-184.44,27.15-265-28.6-64.3-44.5-34.88-97.53-118.2-244.43-52.28-92.18-78.54-97.17-138.9-193.67-55.06-88-89-173.05-110.8-244.7-9.73-27.09-18.27-64.75-10.13-106.33C1197.41,100.61,1356.8,11.25,1495.54,1c193.79-14.35,227.12,134.47,444.53,126.78,134.85-4.78,182.69-64.18,281.73-24.65,78.39,31.28,137.23,103.93,159.66,178,25,82.57-13.21,127.46-21.92,228.52-22.08,256.39,102.07,317.76,51.66,482.09-40.37,131.58-170,255.4-278.61,239.48C2096.42,1225.93,2067.89,1205.91,2047.24,1186.13Z"/><path class="cls-1" d="M127.24,715.13c78.5-15.1,157-30.3,229.3-9.7s138.4,77,186.3,133.7,77.5,113.9,152.3,159.4c130.54,79.41,185.85,71.9,251.9,146.2,37.6,42.29,75.22,116.91,64.46,257.9-3.21,32.07-8.77,78-18.78,132.65-24.6,134.2-36.9,201.29-69.26,245.35C824,1916,525.88,1928,412.8,1807.63c-49.2-52.38-36.84-101.58-109.17-158.48-62.29-49-107-40.48-165.52-89.22-55-45.79-79.5-106.64-91.57-149.09C23,1359.08-5,1278.33.76,1180.76c4.92-83.51,28.71-80.83,43.44-191.35C62,855.49,38.36,767,93.5,728.8A86.31,86.31,0,0,1,127.24,715.13Z"/></g></g></svg>